<svg width="15" height="15" viewBox="0 0 15 15" fill="none" xmlns="http://www.w3.org/2000/svg">
<g clip-path="url(#clip0_1_27)">
<path d="M2.47493 7.1125C2.64992 6.19375 3.51242 5.5625 4.44992 5.5625H6.28118C6.60617 5.5625 6.87493 5.29375 6.87493 4.96875C6.87493 4.64375 6.60617 4.375 6.28118 4.375H4.51242C2.88117 4.375 1.42492 5.56875 1.26868 7.19375C1.08743 9.05625 2.54992 10.625 4.37493 10.625H6.28118C6.60617 10.625 6.87493 10.3562 6.87493 10.0312C6.87493 9.70625 6.60617 9.4375 6.28118 9.4375H4.37493C3.18117 9.4375 2.23743 8.35 2.47493 7.1125ZM5.62493 8.125H9.37492C9.71867 8.125 9.99992 7.84375 9.99992 7.5C9.99992 7.15625 9.71867 6.875 9.37492 6.875H5.62493C5.28118 6.875 4.99993 7.15625 4.99993 7.5C4.99993 7.84375 5.28118 8.125 5.62493 8.125ZM10.4874 4.375H8.71867C8.39367 4.375 8.12493 4.64375 8.12493 4.96875C8.12493 5.29375 8.39367 5.5625 8.71867 5.5625H10.5499C11.4874 5.5625 12.3499 6.19375 12.5249 7.1125C12.7624 8.35 11.8187 9.4375 10.6249 9.4375H8.71867C8.39367 9.4375 8.12493 9.70625 8.12493 10.0312C8.12493 10.3562 8.39367 10.625 8.71867 10.625H10.6249C12.4499 10.625 13.9124 9.05625 13.7374 7.19375C13.5812 5.56875 12.1187 4.375 10.4874 4.375Z" fill="white"/>
</g>
<defs>
<clipPath id="clip0_1_27">
<rect width="15" height="15" fill="white"/>
</clipPath>
</defs>
</svg>
